<svg xmlns="http://www.w3.org/2000/svg" xmlns:xlink="http://www.w3.org/1999/xlink" width="1080" zoomAndPan="magnify" viewBox="0 0 810 809.999993" height="1080" preserveAspectRatio="xMidYMid meet" version="1.0"><defs><g/></defs><rect x="-81" width="972" fill="#ffffff" y="-80.999999" height="971.999992" fill-opacity="1"/><g fill="#000000" fill-opacity="1"><g transform="translate(79.539729, 458.266963)"><g><path d="M 62.886719 -15.347656 C 62.886719 -6.820312 59.261719 -0.214844 47.429688 -0.214844 C 25.792969 -0.214844 7.355469 -42.101562 7.355469 -51.054688 L 6.074219 -51.054688 L 6.074219 -10.765625 C 18.4375 -1.8125 30.058594 2.023438 47.644531 2.023438 C 71.519531 2.023438 89.105469 -13.960938 89.105469 -35.066406 C 89.105469 -78.980469 30.589844 -71.304688 30.589844 -107.011719 C 30.589844 -116.285156 36.984375 -121.507812 45.085938 -121.507812 C 61.394531 -121.507812 79.832031 -99.445312 81.644531 -84.84375 L 82.710938 -84.84375 L 82.710938 -123.53125 L 81.644531 -123.53125 C 80.472656 -122.039062 77.59375 -121.507812 75.460938 -121.507812 C 63.953125 -121.507812 56.703125 -123.53125 45.191406 -123.53125 C 22.382812 -123.53125 4.796875 -112.875 4.796875 -89.746094 C 4.796875 -44.234375 62.886719 -52.972656 62.886719 -15.347656 Z M 62.886719 -15.347656 "/></g></g></g><g fill="#000000" fill-opacity="1"><g transform="translate(173.438422, 458.266963)"><g><path d="M 1.066406 -114.367188 L 1.066406 -113.300781 C 3.730469 -113.300781 8.207031 -109.25 8.207031 -99.230469 L 8.207031 -14.921875 C 8.207031 -7.035156 6.289062 -2.34375 1.277344 -1.066406 L 1.277344 0 L 47.109375 0 L 47.109375 -1.066406 C 42.101562 -2.34375 40.183594 -7.035156 40.183594 -14.921875 L 40.183594 -61.925781 C 40.183594 -69.175781 44.339844 -75.890625 51.054688 -75.890625 C 57.769531 -75.890625 58.941406 -68.320312 58.941406 -62.460938 L 58.941406 -14.921875 C 58.941406 -7.035156 57.023438 -2.34375 52.015625 -1.066406 L 52.015625 0 L 97.84375 0 L 97.84375 -1.066406 C 92.835938 -2.34375 90.917969 -7.035156 90.917969 -14.921875 L 90.917969 -58.410156 C 90.917969 -69.492188 88.039062 -86.761719 66.296875 -86.761719 C 54.144531 -86.761719 44.234375 -79.191406 40.183594 -70.667969 L 40.183594 -123.53125 L 39.117188 -123.53125 C 38.796875 -123.320312 38.371094 -123.105469 37.835938 -122.894531 C 30.269531 -119.910156 11.9375 -114.367188 1.066406 -114.367188 Z M 1.066406 -114.367188 "/></g></g></g><g fill="#000000" fill-opacity="1"><g transform="translate(272.346467, 458.266963)"><g><path d="M 4.261719 -20.144531 C 4.261719 -6.5 14.601562 2.023438 26.21875 2.023438 C 37.519531 2.023438 46.042969 -3.730469 50.308594 -17.160156 C 50.949219 -7.992188 56.597656 2.023438 68.109375 2.023438 C 78.128906 2.023438 85.269531 -2.023438 91.023438 -5.328125 L 91.023438 -6.394531 C 84.84375 -6.394531 82.921875 -12.683594 82.921875 -20.675781 L 82.921875 -50.628906 C 82.921875 -62.460938 75.996094 -86.761719 42.632812 -86.761719 C 19.292969 -86.761719 9.484375 -74.929688 9.484375 -65.125 C 9.484375 -58.515625 14.496094 -53.078125 22.167969 -53.078125 C 32.1875 -53.078125 35.066406 -62.460938 42.953125 -62.460938 C 45.085938 -62.460938 48.28125 -61.820312 48.28125 -58.941406 C 48.28125 -49.347656 4.261719 -53.1875 4.261719 -20.144531 Z M 36.132812 -28.992188 C 36.132812 -54.570312 50.203125 -50.839844 50.203125 -59.261719 C 50.203125 -62.671875 47.324219 -63.738281 44.339844 -65.125 C 40.929688 -66.722656 37.199219 -69.28125 37.199219 -75.570312 C 37.199219 -77.808594 38.15625 -85.160156 42.632812 -85.160156 C 51.054688 -85.160156 50.203125 -69.8125 50.203125 -63.84375 L 50.203125 -20.464844 C 50.203125 -19.292969 47.21875 -16.839844 44.339844 -16.839844 C 38.902344 -16.839844 36.132812 -23.128906 36.132812 -28.992188 Z M 36.132812 -28.992188 "/></g></g></g><g fill="#000000" fill-opacity="1"><g transform="translate(364.433284, 458.266963)"><g><path d="M 1.066406 -77.59375 L 1.066406 -76.527344 C 3.730469 -76.527344 8.207031 -72.476562 8.207031 -62.460938 L 8.207031 -14.921875 C 8.207031 -7.035156 6.289062 -2.34375 1.277344 -1.066406 L 1.277344 0 L 47.109375 0 L 47.109375 -1.066406 C 42.101562 -2.34375 40.183594 -7.035156 40.183594 -14.921875 L 40.183594 -61.925781 C 40.183594 -69.175781 44.339844 -75.890625 51.054688 -75.890625 C 57.769531 -75.890625 58.941406 -68.320312 58.941406 -62.460938 L 58.941406 -14.921875 C 58.941406 -7.035156 57.023438 -2.34375 52.015625 -1.066406 L 52.015625 0 L 97.84375 0 L 97.84375 -1.066406 C 92.835938 -2.34375 90.917969 -7.035156 90.917969 -14.921875 L 90.917969 -58.410156 C 90.917969 -69.492188 88.039062 -86.761719 66.296875 -86.761719 C 54.144531 -86.761719 44.234375 -79.191406 40.183594 -70.667969 L 40.183594 -86.761719 L 39.117188 -86.761719 C 38.796875 -86.546875 38.371094 -86.335938 37.835938 -86.121094 C 30.269531 -83.136719 11.9375 -77.59375 1.066406 -77.59375 Z M 1.066406 -77.59375 "/></g></g></g><g fill="#000000" fill-opacity="1"><g transform="translate(463.34133, 458.266963)"><g><path d="M 48.710938 2.023438 C 66.296875 2.023438 82.921875 -9.378906 82.921875 -24.300781 C 78.445312 -22.488281 74.183594 -21.53125 69.386719 -21.53125 C 55.851562 -21.53125 44.765625 -27.179688 38.15625 -37.730469 L 47.75 -37.730469 C 73.4375 -37.730469 84.308594 -45.085938 84.308594 -59.15625 C 84.308594 -74.183594 70.667969 -86.652344 46.472656 -86.652344 C 21.851562 -86.652344 4.261719 -66.828125 4.261719 -42.3125 C 4.261719 -17.800781 24.089844 2.023438 48.710938 2.023438 Z M 36.984375 -39.757812 C 33.574219 -46.042969 31.65625 -53.933594 31.65625 -63.3125 C 31.65625 -71.414062 34.746094 -84.308594 44.550781 -84.308594 C 52.867188 -84.308594 56.597656 -72.796875 56.597656 -63.84375 C 56.597656 -52.652344 51.800781 -39.757812 37.625 -39.757812 Z M 36.984375 -39.757812 "/></g></g></g><g fill="#000000" fill-opacity="1"><g transform="translate(548.713467, 458.266963)"><g><path d="M 1.066406 -114.367188 L 1.066406 -113.300781 C 3.730469 -113.300781 8.207031 -109.25 8.207031 -99.230469 L 8.207031 -14.921875 C 8.207031 -7.035156 6.289062 -2.34375 1.277344 -1.066406 L 1.277344 0 L 47.109375 0 L 47.109375 -1.066406 C 42.101562 -2.34375 40.183594 -7.035156 40.183594 -14.921875 L 40.183594 -123.53125 L 39.117188 -123.53125 C 32.613281 -120.226562 12.578125 -114.367188 1.066406 -114.367188 Z M 1.066406 -114.367188 "/></g></g></g><g fill="#000000" fill-opacity="1"><g transform="translate(596.888502, 458.266963)"><g><path d="M 1.066406 -114.367188 L 1.066406 -113.300781 C 3.730469 -113.300781 8.207031 -109.25 8.207031 -99.230469 L 8.207031 -14.921875 C 8.207031 -7.035156 6.289062 -2.34375 1.277344 -1.066406 L 1.277344 0 L 47.109375 0 L 47.109375 -1.066406 C 42.101562 -2.34375 40.183594 -7.035156 40.183594 -14.921875 L 40.183594 -123.53125 L 39.117188 -123.53125 C 32.613281 -120.226562 12.578125 -114.367188 1.066406 -114.367188 Z M 1.066406 -114.367188 "/></g></g></g><g fill="#000000" fill-opacity="1"><g transform="translate(645.063537, 458.266963)"><g><path d="M 48.710938 2.023438 C 66.296875 2.023438 82.921875 -9.378906 82.921875 -24.300781 C 78.445312 -22.488281 74.183594 -21.53125 69.386719 -21.53125 C 55.851562 -21.53125 44.765625 -27.179688 38.15625 -37.730469 L 47.75 -37.730469 C 73.4375 -37.730469 84.308594 -45.085938 84.308594 -59.15625 C 84.308594 -74.183594 70.667969 -86.652344 46.472656 -86.652344 C 21.851562 -86.652344 4.261719 -66.828125 4.261719 -42.3125 C 4.261719 -17.800781 24.089844 2.023438 48.710938 2.023438 Z M 36.984375 -39.757812 C 33.574219 -46.042969 31.65625 -53.933594 31.65625 -63.3125 C 31.65625 -71.414062 34.746094 -84.308594 44.550781 -84.308594 C 52.867188 -84.308594 56.597656 -72.796875 56.597656 -63.84375 C 56.597656 -52.652344 51.800781 -39.757812 37.625 -39.757812 Z M 36.984375 -39.757812 "/></g></g></g><g fill="#000000" fill-opacity="1"><g transform="translate(20.017085, 464.040438)"><g><path d="M 4.058594 -67.640625 C 4.058594 -65.203125 8.117188 -64.394531 8.117188 -64.394531 C 13.527344 -61.417969 18.667969 -56.277344 18.667969 -47.617188 C 18.667969 -35.714844 15.152344 -33.820312 15.152344 -15.421875 C 15.152344 -2.707031 24.890625 10.550781 40.3125 10.550781 C 48.972656 10.550781 53.300781 7.847656 55.464844 4.328125 C 56.277344 2.976562 55.464844 1.625 53.570312 0.8125 C 49.78125 -0.8125 44.371094 -2.433594 44.371094 -10.28125 C 44.371094 -20.832031 48.972656 -22.726562 48.972656 -36.527344 C 48.972656 -47.617188 40.042969 -67.640625 21.914062 -67.640625 C 40.042969 -67.640625 48.972656 -87.660156 48.972656 -98.753906 C 48.972656 -112.554688 44.371094 -114.445312 44.371094 -125 C 44.371094 -132.84375 49.78125 -134.46875 53.570312 -136.089844 C 55.464844 -136.902344 56.277344 -138.257812 55.464844 -139.609375 C 53.300781 -143.125 48.972656 -145.832031 40.3125 -145.832031 C 24.890625 -145.832031 15.152344 -132.574219 15.152344 -119.859375 C 15.152344 -101.460938 18.667969 -99.566406 18.667969 -87.660156 C 18.667969 -79.003906 13.796875 -73.59375 8.117188 -70.886719 C 6.492188 -70.074219 4.058594 -70.34375 4.058594 -67.640625 Z M 4.058594 -67.640625 "/></g></g></g><g fill="#000000" fill-opacity="1"><g transform="translate(730.160239, 464.040438)"><g><path d="M 6.765625 -136.089844 C 10.550781 -134.46875 15.964844 -132.84375 15.964844 -125 C 15.964844 -114.445312 11.363281 -112.554688 11.363281 -98.753906 C 11.363281 -87.660156 20.292969 -67.640625 38.417969 -67.640625 C 20.292969 -67.640625 11.363281 -47.617188 11.363281 -36.527344 C 11.363281 -22.726562 15.964844 -20.832031 15.964844 -10.28125 C 15.964844 -2.433594 10.550781 -0.8125 6.765625 0.8125 C 4.871094 1.625 4.058594 2.976562 4.871094 4.328125 C 7.035156 7.847656 11.363281 10.550781 20.019531 10.550781 C 35.445312 10.550781 45.183594 -2.707031 45.183594 -15.421875 C 45.183594 -33.820312 41.667969 -35.714844 41.667969 -47.617188 C 41.667969 -56.277344 46.808594 -61.417969 52.21875 -64.394531 C 52.21875 -64.394531 56.277344 -65.203125 56.277344 -67.640625 C 56.277344 -70.34375 53.839844 -70.074219 52.21875 -70.886719 C 46.535156 -73.59375 41.667969 -79.003906 41.667969 -87.660156 C 41.667969 -99.566406 45.183594 -101.460938 45.183594 -119.859375 C 45.183594 -132.574219 35.445312 -145.832031 20.019531 -145.832031 C 11.363281 -145.832031 7.035156 -143.125 4.871094 -139.609375 C 4.058594 -138.257812 4.871094 -136.902344 6.765625 -136.089844 Z M 6.765625 -136.089844 "/></g></g></g></svg>